<svg width="512" height="512" viewBox="0 0 200 200" fill="none" xmlns="http://www.w3.org/2000/svg">
  <circle cx="100" cy="100" r="95" fill="#E0F2FE" />
  <circle cx="100" cy="100" r="90" stroke="#3B82F6" stroke-width="4" stroke-dasharray="8 6"/>
  <path d="M60 90C50 80 50 60 65 50C75 30 95 25 110 25C125 25 145 30 155 50C170 60 170 80 160 90" stroke="#4B2C20" stroke-width="14" stroke-linecap="round" fill="none"/>
  <path d="M70 55C75 45 85 45 90 55" stroke="#4B2C20" stroke-width="8" stroke-linecap="round"/>
  <path d="M130 55C135 45 145 45 150 55" stroke="#4B2C20" stroke-width="8" stroke-linecap="round"/>
  <path d="M100 165C130 165 150 140 150 105C150 75 130 55 100 55C70 55 50 75 50 105C50 140 70 165 100 165Z" fill="#FFDFC4" />
  <circle cx="75" cy="110" r="18" stroke="#1E3A8A" stroke-width="4" fill="rgba(255,255,255,0.3)" />
  <circle cx="125" cy="110" r="18" stroke="#1E3A8A" stroke-width="4" fill="rgba(255,255,255,0.3)" />
  <line x1="93" y1="110" x2="107" y2="110" stroke="#1E3A8A" stroke-width="4" />
  <line x1="57" y1="110" x2="45" y2="105" stroke="#1E3A8A" stroke-width="3" />
  <line x1="143" y1="110" x2="155" y2="105" stroke="#1E3A8A" stroke-width="3" />
  <circle cx="75" cy="110" r="3" fill="#1E293B" />
  <circle cx="125" cy="110" r="3" fill="#1E293B" />
  <path d="M85 140C90 145 110 145 115 140" stroke="#9A3412" stroke-width="3" stroke-linecap="round" />
</svg>